<svg width="8" height="5" viewBox="0 0 8 5" fill="none" xmlns="http://www.w3.org/2000/svg">
<path fill-rule="evenodd" clip-rule="evenodd" d="M0.305923 0.303586C0.501864 0.109476 0.767581 0.000430592 1.04464 0.000430592C1.3217 0.000430592 1.58742 0.109476 1.78336 0.303586L3.99952 2.4997L6.21568 0.303586C6.4116 0.1093 6.67738 9.71507e-05 6.95455 6.47905e-08C7.23173 -9.70212e-05 7.49758 0.108919 7.69364 0.303067C7.8897 0.497216 7.9999 0.760592 8 1.03526C8.0001 1.30992 7.89009 1.57337 7.69417 1.76766L4.73824 4.69684C4.5423 4.89095 4.27658 5 3.99952 5C3.72246 5 3.45674 4.89095 3.2608 4.69684L0.305923 1.76766C0.110041 1.57349 0 1.31018 0 1.03562C0 0.761068 0.110041 0.497754 0.305923 0.303586Z" fill="#485C79"/>
</svg>
